The intercut story of two women: a nearly-mute beauty queen who descends into withdrawal and madness, and another who captains a ship laden with candy and sugar, luring men and boys aboard for sex, death, and revolutionary talk. The beauty queen passes from a wealthy husband whose honeymoon delight is to urinate on her, to a muscular keeper who punches her, stows her in a suitcase, and ships her to Paris, to a lip-synching rock idol with whom she has a love spasm, to an Austrian commune complete with a banquet of vomit, urine, feces, chopped dildos, and wet nurses. By then she's in a fetal position, until everyone's rescued by reminders that "it's just a movie." 

General
Unique ID : 195593541480430155104849405086437610881 (0x9325F223008E3E418C159DF179061581)
Complete name : sweet.movie.1974.criterion.dvdrip.x264.ac3.1ch-[gx].mkv
Format : Matroska
Format version : Version 2
File size : 1.46 GiB
Duration : 1h 38mn
Overall bit rate : 2 122 Kbps
Encoded date : UTC 2009-05-17 13:38:17
Writing application : mkvmerge v2.8.0 ('The Tree') built on May 9 2009 18:02:06
Writing library : libebml v0.7.7 + libmatroska v0.8.1

Video
ID : 1
Format : AVC
Format/Info : Advanced Video Codec
Format profile : High@L4.1
Format settings, CABAC : Yes
Format settings, ReFrames : 16 frames
Codec ID : V_MPEG4/ISO/AVC
Duration : 1h 38mn
Bit rate : 1 928 Kbps
Width : 656 pixels
Height : 480 pixels
Display aspect ratio : 1.656
Original display aspect ratio : 1.657
Frame rate : 23.976 fps
Color space : YUV
Chroma subsampling : 4:2:0
Bit depth : 8 bits
Scan type : Progressive
Bits/(Pixel*Frame) : 0.255
Stream size : 1.30 GiB (89%)
Title : Sweet Movie (1974)
Writing library : x264 core 67 r1148 400740b
Encoding settings : cabac=1 / ref=16 / deblock=1:-1:-1 / analyse=0x3:0x133 / me=umh / subme=9 / psy_rd=0.7:0.6 / mixed_ref=1 / me_range=16 / chroma_me=1 / trellis=2 / 8x8dct=1 / cqm=0 / deadzone=21,11 / chroma_qp_offset=-4 / threads=3 / nr=0 / decimate=0 / mbaff=0 / bframes=3 / b_pyramid=1 / b_adapt=2 / b_bias=0 / direct=3 / wpredb=1 / keyint=240 / keyint_min=24 / scenecut=40 / rc=2pass / bitrate=1928 / ratetol=1.0 / qcomp=0.60 / qpmin=10 / qpmax=51 / qpstep=4 / cplxblur=20.0 / qblur=0.5 / ip_ratio=1.40 / pb_ratio=1.30 / aq=1:0.80

Audio
ID : 2
Format : AC-3
Format/Info : Audio Coding 3
Mode extension : CM (complete main)
Codec ID : A_AC3
Duration : 1h 38mn
Bit rate mode : Constant
Bit rate : 192 Kbps
Channel(s) : 1 channel
Channel positions : Front: C
Sampling rate : 48.0 KHz
Bit depth : 16 bits
Compression mode : Lossy
Stream size : 135 MiB (9%)
Title : English Audio (AC3, mono) and also some Polish, French, Spanish and Italian
Language : English

Text #1
ID : 3
Format : UTF-8
Codec ID : S_TEXT/UTF8
Codec ID/Info : UTF-8 Plain Text
Title : English HI Subs (SRT)
Language : English

Text #2
ID : 4
Format : UTF-8
Codec ID : S_TEXT/UTF8
Codec ID/Info : UTF-8 Plain Text
Title : English Subs (for non eng. speaking parts) (SRT)
Language : English
